<?xml version="1.0" standalone="no"?>
<!DOCTYPE svg PUBLIC "-//W3C//DTD SVG 20010904//EN"
 "http://www.w3.org/TR/2001/REC-SVG-20010904/DTD/svg10.dtd">
<svg version="1.0" xmlns="http://www.w3.org/2000/svg"
 width="260.000000pt" height="260.000000pt" viewBox="0 0 260.000000 260.000000"
 preserveAspectRatio="xMidYMid meet">
<metadata>
Created by potrace 1.11, written by Peter Selinger 2001-2013
</metadata>
<g transform="translate(0.000000,260.000000) scale(0.100000,-0.100000)"
fill="#000000" stroke="none">
<path d="M1617 1870 c-106 -18 -197 -84 -243 -178 -25 -50 -29 -68 -28 -147 0
-78 4 -98 28 -148 39 -79 110 -140 226 -194 222 -104 252 -124 271 -180 24
-74 -58 -153 -162 -153 -87 0 -166 41 -215 112 l-26 37 -47 -26 c-41 -23 -140
-82 -150 -90 -7 -4 31 -56 77 -105 96 -103 211 -143 392 -135 151 6 213 28
291 106 45 46 58 67 72 117 22 77 22 151 0 228 -31 112 -166 218 -385 301
-135 51 -177 161 -86 228 32 24 104 25 147 3 28 -15 66 -55 73 -78 2 -6 47 17
100 51 l97 62 -20 34 c-72 121 -238 184 -412 155z"/>
<path d="M890 1421 c0 -287 -4 -449 -11 -468 -17 -46 -48 -72 -95 -79 -59 -9
-95 8 -148 68 -50 57 -37 58 -163 -19 l-73 -45 19 -36 c37 -72 127 -141 215
-167 81 -24 242 -17 307 12 66 29 121 83 155 150 l29 58 3 483 3 482 -121 0
-120 0 0 -439z"/>
</g>
</svg>
